<?xml version="1.0" encoding="UTF-8" standalone="no"?>
<svg width="32px" height="36px" viewBox="0 0 32 36" version="1.1" xmlns="http://www.w3.org/2000/svg" xmlns:xlink="http://www.w3.org/1999/xlink">
    <!-- Generator: Sketch 3.8.3 (29802) - http://www.bohemiancoding.com/sketch -->
    <title>Love_Heart_SVG</title>
    <desc>Created with Sketch.</desc>
    <defs></defs>
    <g id="Page-1" stroke="none" stroke-width="1" fill="none" fill-rule="evenodd">
        <g id="Love_Heart_SVG" fill="#FF98C2">
            <g id="layer1">
                <path d="M14.7418394,33.9328532 C14.0541619,32.9697552 12.3370633,31.0921799 10.9260665,29.760465 C6.74539382,25.8147003 6.17640337,25.2436679 4.47896352,23.2902455 C1.34962671,19.6889871 0.0206488362,16.0709029 0.0252030103,11.1650687 C0.0274251183,8.77023577 0.158033832,7.84758135 0.694651307,6.43595023 C1.60506374,4.04100106 2.94614645,2.26136571 4.66072022,1.17292973 C5.87509267,0.402031716 6.47401934,0.0595344291 8.50193972,0.045522443 C10.6232896,0.0308707549 11.0698588,0.33999392 12.3177131,1.19676347 C13.8365654,2.23959787 15.3998922,4.46831545 15.7230537,6.05149705 L15.9226469,7.02932444 L16.4148593,5.6826307 C19.1963217,-1.92746533 28.0765559,-1.81360825 31.1669237,5.87177657 C32.1472754,8.30979702 32.2549057,13.5155792 31.385588,16.4479695 C30.2515964,20.2731642 28.1216874,23.1894237 23.198064,27.6582934 C19.9690683,30.5890577 16.3145825,35.023373 16.0601835,35.6461774 C15.7648709,36.3691429 16.0460975,35.7594745 14.7418394,33.9328532 L14.7418394,33.9328532 Z" id="path2417"></path>
            </g>
        </g>
    </g>
</svg>